<?xml version="1.0" ?><svg enable-background="new 0 0 64 64" height="64px" version="1.1" viewBox="0 0 64 64" width="64px" xml:space="preserve" xmlns="http://www.w3.org/2000/svg" xmlns:xlink="http://www.w3.org/1999/xlink"><g id="Arrow-1"/><g id="Arrow-2"/><g id="Arrow-3"/><g id="Arrow-4"/><g id="Arrow-5"/><g id="Arrow-6"/><g id="Arrow-7"/><g id="Arrow-8"/><g id="Arrow-9"/><g id="Arrow-10"/><g id="Arrow-11"/><g id="Arrow-12"/><g id="Arrow-13"/><g id="Arrow-14"/><g id="Arrow-15"/><g id="Arrow-16"><path d="M57.5351563,19.9990234l-2.8681641-2.8681641c-0.1875-0.1875-0.4418945-0.2929688-0.7070313-0.2929688   c-0.0024414,0-0.0048828,0-0.0068359,0c-0.2680664,0.0019531-0.5234375,0.1108398-0.7099609,0.3027344L32,38.9897461   L10.7568359,17.1411133c-0.1865234-0.1918945-0.4418945-0.3007813-0.7099609-0.3027344c-0.0019531,0-0.0043945,0-0.0068359,0   c-0.2651367,0-0.5195313,0.1054688-0.7070313,0.2929688l-2.8681641,2.8681641   c-0.387207,0.387207-0.3911133,1.0131836-0.0087891,1.4052734l24.828125,25.4555664   C31.472168,47.0532227,31.7304688,47.1621094,32,47.1621094s0.527832-0.1088867,0.7158203-0.3017578l24.828125-25.4560547   C57.9262695,21.012207,57.9223633,20.3862305,57.5351563,19.9990234z M32,44.7299805L8.5771484,20.715332l1.453125-1.4526367   L31.2832031,41.121582c0.3759766,0.3867188,1.0576172,0.3867188,1.4335938,0l21.2529297-21.859375l1.453125,1.4526367   L32,44.7299805z"/></g><g id="Arrow-17"/><g id="Arrow-18"/><g id="Arrow-19"/><g id="Arrow-20"/><g id="Arrow-21"/><g id="Arrow-22"/><g id="Arrow-23"/><g id="Arrow-24"/><g id="Arrow-25"/><g id="Arrow-26"/><g id="Arrow-27"/><g id="Arrow-28"/><g id="Arrow-29"/><g id="Arrow-30"/><g id="Arrow-31"/><g id="Arrow-32"/><g id="Arrow-33"/><g id="Arrow-34"/><g id="Arrow-35"/><g id="Arrow-36"/></svg>